<svg xmlns="http://www.w3.org/2000/svg" shape-rendering="geometricPrecision" text-rendering="geometricPrecision" image-rendering="optimizeQuality" fill-rule="evenodd" clip-rule="evenodd" viewBox="0 0 461 511.902"><path fill="#C4264D" d="M44.465 256.604c-16.422 5.545-25.461 1.869-28.308-8.381-6.172-22.219 20.888-54.734 33.382-71.636 30.096-40.716 68.866-68.035 110.737-82.243a80.053 80.053 0 0015.417 21.652c14.436 14.437 34.378 23.365 56.404 23.365 22.024 0 41.966-8.928 56.402-23.365a80.013 80.013 0 0015.03-20.869c53.932 18.741 102.8 58.681 134.749 119.284 9.885 22.44 11.041 36.893-1.811 41.736-2.973 1.121-6.445 1.225-10.454.601-6.276-.978-14.216-2.926-22.898-7.176-99.925-48.918-118.22 19.814-168.777 21.098-56.24 1.428-63.291-77.357-189.873-14.066z"/><path fill="#D63757" d="M20.126 221.562c7.385-16.855 21.397-34.127 29.413-44.975 30.096-40.716 68.866-68.035 110.737-82.243a80.053 80.053 0 0015.417 21.652c14.436 14.437 34.378 23.365 56.404 23.365 22.024 0 41.966-8.928 56.402-23.365a80.013 80.013 0 0015.03-20.869c53.932 18.741 102.799 58.681 134.747 119.284a156.76 156.76 0 012.386 5.696c-9.405 7.245-28.225.27-37.547-4.293-99.925-48.919-118.22 19.813-168.777 21.096-56.241 1.43-63.29-77.356-189.873-14.063-11.745 3.965-19.708 3.212-24.339-1.285z"/><path fill="#E3405C" d="M55.413 168.977c29.192-36.522 65.67-61.321 104.869-74.622a80.015 80.015 0 0015.411 21.641c14.436 14.437 34.378 23.365 56.404 23.365 22.024 0 41.966-8.928 56.402-23.365a80.017 80.017 0 0015.024-20.855c39.304 13.662 75.918 38.584 105.254 74.564a79.894 79.894 0 01-5.662-2.504c-99.925-48.918-118.22 19.812-168.777 21.095-54.572 1.386-62.836-72.743-178.925-19.319z"/><path fill="#597890" fill-rule="nonzero" d="M458.945 286.561l-53.071 164.534-1.045 3.371c-5.408 17.335-9.764 31.291-25.748 44.785-6.444 5.442-12.05 8.568-18.145 10.367-5.967 1.76-11.947 2.137-19.435 2.137H135.587c-4.223 0-5.919.031-7.551.059-17.063.302-31.027.548-47.054-12.382-14.484-11.683-18.31-24.201-22.86-39.089l-2.024-6.61L1.179 283.361c-.511-1.584-.91-2.683-1.097-4.449-.998-9.383 7.253-14.408 16.799-10.981 7.257 2.603 13.203 4.534 18.372 5.804 9.802 2.409 18.123 2.534 27.993-.019 5.618-1.454 12.026-3.924 19.969-7.829 53.771-26.437 80.618-9.827 106.845 6.404 13.288 8.222 26.398 16.335 42.797 16.882 15.486.514 32.467-8.847 45.848-15.935 16.517-8.744 32.879-17.407 51.975-18.715 20.218-1.386 36.221 4.831 51.42 10.737 15.401 5.984 29.86 11.602 45.896 6.452.913-.292 2.515-1.015 4.307-1.824 6.4-2.885 14.53-6.549 20.939-4.336 6.854 2.367 10.104 8.295 5.846 20.626l-.143.383z"/><path fill="#EFF3F4" d="M451.614 283.671l-53.266 165.134c-5.577 17.71-9.157 31.651-24.394 44.515-11.061 9.342-18.846 10.61-32.453 10.61H135.588c-19.129 0-33.617 2.372-49.634-10.551-14.584-11.765-16.978-25.328-22.352-42L8.282 279.78c-1.48-5.09 1.518-6.089 5.912-4.511 15.042 5.395 24.783 8.033 33.938 8.103 10.983.085 21.732-2.203 38.572-10.484 78.801-38.744 95.411 22.395 145.905 24.08 9.852.33 21.261-2.576 35.822-9.654 20.723-10.073 40.216-23.449 62.774-24.996 39.947-2.741 64.396 28.001 99.2 16.824 7.038-2.26 28.22-15.768 21.209 4.529z"/><path fill="#6CA7D4" d="M9.144 283.794c-1.161-3.979-1.866-6.558-.79-8.158 1.936-2.884 5.14-1.127 7.548-.245 15.381 5.637 25.746 8.145 34.459 7.97l59.342 220.791h-.123c-15.861-3.624-28.716-12.33-37.763-27.471L9.144 283.794zm61.267-4.251c16.564-6.605 41.704-19.744 59.658-19.464l32.859 244.073h-32.237l-60.28-224.609zm80.899-17.544c29.967 7.56 40.717 21.997 62.883 31.207 2.182.906 4.369 1.691 6.53 2.16v208.786h-36.809L151.31 261.999zm90.4 34.429c26.747-4.899 42.82-20.422 67.139-28.956l-31.731 236.68H241.71V296.428zm89.042-34.09c10.442-.696 22.106.018 35.627 4.617 8.823 3.001 16.786 7.115 24.941 9.991l-60.977 227.206h-32.237l32.646-241.814zm80.356 19.078c6.588.376 13.73-.894 21.537-3.575 4.776-1.638 25.523-13.943 19.653 3.488l-61.56 190.49c-8.861 16.829-21.21 27.912-37.604 32.333h-1.803l59.777-222.736z"/><path fill="#E23D21" d="M232.094 0c34.198 0 61.92 27.722 61.92 61.917 0 34.198-27.722 61.92-61.92 61.92-34.195 0-61.917-27.722-61.917-61.92C170.177 27.722 197.899 0 232.094 0z"/><path fill="#C3392D" d="M293.841 58.392c.071 1.203.109 2.409.109 3.627 0 34.163-27.694 61.858-61.857 61.858-23.716 0-44.314-13.351-54.692-32.944 35.371 21.099 98.684-.073 116.44-32.541z"/></svg>